<?xml version="1.0" encoding="UTF-8" standalone="no"?>
<!-- Created with Inkscape (http://www.inkscape.org/) -->

<svg
   width="85.060768mm"
   height="68.169266mm"
   viewBox="0 0 85.060768 68.169266"
   version="1.1"
   id="svg1"
   xml:space="preserve"
   xmlns="http://www.w3.org/2000/svg"
   xmlns:svg="http://www.w3.org/2000/svg"><defs
     id="defs1" /><g
     id="layer2"
     transform="translate(-253.28329,-11.181369)"><rect
       style="fill:#ffffff;fill-opacity:0.5;stroke:none;stroke-width:5.29167;stroke-linecap:square;stroke-linejoin:round;stroke-miterlimit:1.6"
       id="rect13"
       width="85.06076"
       height="68.169266"
       x="253.28329"
       y="11.181369" /><g
       id="g5"
       transform="translate(0.05377244,0.16744483)"><path
         style="fill:#2056ae;fill-opacity:1;stroke:none;stroke-width:5.29167;stroke-linecap:square;stroke-linejoin:round;stroke-miterlimit:1.6"
         d="m 263.4887,27.462414 h 13.99455 c 0,0 4.20079,-0.03784 6.23614,2.178254 2.03536,2.216096 2.10115,5.206037 2.11543,8.129558 0.0143,2.923521 0.0182,6.697672 -2.18262,9.116406 -2.20077,2.418734 -5.71752,2.395236 -5.71752,2.395236 H 263.4887 V 36.340674 h 7.90016 v 7.749669 h 3.38577 c 0,0 1.23375,0.03326 2.16513,-1.145389 0.93139,-1.178645 0.82566,-3.150652 0.85688,-4.577179 0.0312,-1.426527 -0.16227,-3.567649 -1.32508,-4.774351 -1.16277,-1.206702 -2.44933,-1.165203 -2.44933,-1.165203 h -10.45829 z"
         id="path1" /><path
         style="fill:#2056ae;fill-opacity:1;stroke:none;stroke-width:5.29167;stroke-linecap:square;stroke-linejoin:round;stroke-miterlimit:1.6"
         d="m 287.62359,27.489216 h 17.43406 v 4.779071 h -9.71108 v 4.129116 h 9.63461 v 4.970232 h -9.51992 v 7.952375 h -7.95237 z"
         id="path2" /><text
         xml:space="preserve"
         style="font-size:5.57818px;line-height:1.5;font-family:'Noto Sans Tirhuta';-inkscape-font-specification:'Noto Sans Tirhuta';text-align:center;writing-mode:lr-tb;direction:ltr;text-anchor:middle;fill:#2056ae;fill-opacity:1;stroke:none;stroke-width:0.209182;stroke-linecap:square;stroke-linejoin:round;stroke-miterlimit:1.6"
         x="279.52377"
         y="56.730434"
         id="text3-3"
         transform="scale(0.94140128,1.0622463)"><tspan
           style="text-align:start;text-anchor:start;stroke-width:0.209182"
           x="279.52377"
           y="56.730434"
           id="tspan4-4">Deutsche</tspan></text><text
         xml:space="preserve"
         style="font-size:5.59234px;line-height:1.5;font-family:'Noto Sans Tirhuta';-inkscape-font-specification:'Noto Sans Tirhuta';text-align:center;writing-mode:lr-tb;direction:ltr;text-anchor:middle;fill:#2056ae;fill-opacity:1;stroke:none;stroke-width:0.209713;stroke-linecap:square;stroke-linejoin:round;stroke-miterlimit:1.6"
         x="279.18503"
         y="63.802635"
         id="text3"
         transform="scale(0.94159697,1.0620255)"><tspan
           style="text-align:start;text-anchor:start;stroke-width:0.209713"
           x="279.18503"
           y="63.802635"
           id="tspan4">Forschungsgemeinschaft</tspan></text><path
         style="fill:#2056ae;fill-opacity:1;stroke:none;stroke-width:5.29167;stroke-linecap:square;stroke-linejoin:round;stroke-miterlimit:1.6"
         d="m 321.5741,44.38801 v -6.040747 h 6.57601 v 10.208096 c 0,0 -4.93841,1.151912 -9.48166,1.146977 -4.54325,-0.0049 -11.81235,-2.186063 -11.92858,-11.508002 -0.11623,-9.321939 7.33634,-11.201922 12.00504,-11.240376 4.6687,-0.03845 8.22,0.917583 8.22,0.917583 v 5.581955 c 0,0 -2.75152,-1.351759 -5.46727,-1.338141 -2.71575,0.01362 -6.62039,1.391802 -6.65247,6.231909 -0.0321,4.840107 2.7202,6.152865 4.16737,6.231909 1.44716,0.07904 2.56156,-0.191163 2.56156,-0.191163 z"
         id="path3" /></g></g></svg>
