<?xml version="1.0" encoding="UTF-8" standalone="no"?>
<!-- Created with Inkscape (http://www.inkscape.org/) -->

<svg
   width="85.060768mm"
   height="68.169266mm"
   viewBox="0 0 85.060768 68.169266"
   version="1.1"
   id="svg1"
   xml:space="preserve"
   xmlns="http://www.w3.org/2000/svg"
   xmlns:svg="http://www.w3.org/2000/svg"><defs
     id="defs1" /><g
     id="layer3"
     transform="translate(-348.08619,-79.653054)"><rect
       style="fill:#ffffff;fill-opacity:0.5;stroke:none;stroke-width:5.29167;stroke-linecap:square;stroke-linejoin:round;stroke-miterlimit:1.6"
       id="rect13-3"
       width="85.06076"
       height="68.169266"
       x="348.08618"
       y="79.653053" /><g
       id="g12"
       transform="translate(103.01431,1.3947779)"><path
         id="path4"
         style="fill:#ee220c;fill-opacity:1;stroke:none;stroke-width:5.29167;stroke-linecap:square;stroke-linejoin:round;stroke-miterlimit:1.6"
         d="m 251.59084,100.6166 v 25.83305 h 5.69888 v -9.31468 l 6.65334,0.0289 c 0,0 8.30285,-0.0923 8.30285,-8.30285 0,-8.21058 -8.24497,-8.24446 -8.24497,-8.24446 z m 5.72989,4.4235 4.75888,0.0145 c 0,0 4.54401,-0.0274 4.54701,3.78943 0.003,3.81678 -4.61936,3.8623 -4.61936,3.8623 h -4.68653 z" /><path
         id="path4-0"
         style="fill:#1db100;fill-opacity:1;stroke:none;stroke-width:5.29167;stroke-linecap:square;stroke-linejoin:round;stroke-miterlimit:1.6"
         d="m 304.43568,100.49781 v 25.83305 h 5.69888 v -9.31468 l 6.65334,0.0289 c 0,0 8.30285,-0.0923 8.30285,-8.30285 0,-8.21058 -8.24497,-8.24446 -8.24497,-8.24446 z m 5.72989,4.4235 4.75888,0.0145 c 0,0 4.54401,-0.0274 4.54701,3.78943 0.003,3.81678 -4.61936,3.8623 -4.61936,3.8623 h -4.68653 z" /><path
         id="path5"
         style="fill:#000000;fill-opacity:1;stroke:none;stroke-width:5.29167;stroke-linecap:square;stroke-linejoin:round;stroke-miterlimit:1.6"
         d="m 286.76536,99.506595 a 13.293423,13.266567 0 0 0 -1.87688,0.25166 13.293423,13.266567 0 0 0 -10.31979,15.653315 13.293423,13.266567 0 0 0 15.65796,10.33942 13.293423,13.266567 0 0 0 10.40143,-15.59957 l -0.0279,-0.13539 A 13.293423,13.266567 0 0 0 286.76536,99.506595 Z m 0.26924,3.799255 a 9.4026051,9.4217949 0 0 1 9.78596,7.46362 l 0.0196,0.0961 a 9.4026051,9.4217949 0 0 1 -7.35666,11.07839 9.4026051,9.4217949 0 0 1 -11.07529,-7.34322 9.4026051,9.4217949 0 0 1 7.2993,-11.11663 9.4026051,9.4217949 0 0 1 1.32705,-0.17828 z" /><path
         id="path11-3"
         style="fill:#000000;fill-opacity:1;stroke:none;stroke-width:5.58183;stroke-linecap:square;stroke-linejoin:round;stroke-miterlimit:1.6"
         d="m 287.09454,104.35798 a 8.4425211,8.418292 0 0 0 -1.19217,0.15968 8.4425211,8.418292 0 0 0 -6.55361,9.93273 8.4425211,8.418292 0 0 0 9.9441,6.56084 8.4425211,8.418292 0 0 0 6.6058,-9.89811 l -0.0181,-0.0863 a 8.4425211,8.418292 0 0 0 -8.78603,-6.66884 z m 0.23823,3.4742 a 4.8893332,4.9313951 0 0 1 5.08858,3.90674 l 0.01,0.0501 a 4.8893332,4.9313951 0 0 1 -3.82561,5.79861 4.8893332,4.9313951 0 0 1 -5.75882,-3.84317 4.8893332,4.9313951 0 0 1 3.79563,-5.81877 4.8893332,4.9313951 0 0 1 0.6904,-0.0935 z" /><rect
         style="fill:#000000;fill-opacity:1;stroke:none;stroke-width:5.29167;stroke-linecap:square;stroke-linejoin:round;stroke-miterlimit:1.6"
         id="rect11"
         width="0.5608632"
         height="42.539318"
         x="287.42084"
         y="89.651825" /><rect
         style="fill:#000000;fill-opacity:1;stroke:none;stroke-width:4.55886;stroke-linecap:square;stroke-linejoin:round;stroke-miterlimit:1.6"
         id="rect11-8"
         width="0.5608632"
         height="31.573078"
         x="112.43526"
         y="-303.50092"
         transform="rotate(90)" /><text
         xml:space="preserve"
         style="font-size:3.35398px;line-height:1.5;font-family:'Noto Sans Tirhuta';-inkscape-font-specification:'Noto Sans Tirhuta';text-align:center;writing-mode:lr-tb;direction:ltr;text-anchor:middle;fill:#000000;fill-opacity:1;stroke:none;stroke-width:0.125776;stroke-linecap:square;stroke-linejoin:round;stroke-miterlimit:1.6"
         x="289.71213"
         y="110.24054"
         id="text11"
         transform="scale(0.98615294,1.0140415)"><tspan
           id="tspan11"
           style="font-style:normal;font-variant:normal;font-weight:bold;font-stretch:normal;font-family:Helvetica;-inkscape-font-specification:'Helvetica Bold';stroke-width:0.125776"
           x="289.71213"
           y="110.24054">2</tspan></text><text
         xml:space="preserve"
         style="font-size:3.35398px;line-height:1.5;font-family:'Noto Sans Tirhuta';-inkscape-font-specification:'Noto Sans Tirhuta';text-align:center;writing-mode:lr-tb;direction:ltr;text-anchor:middle;fill:#000000;fill-opacity:1;stroke:none;stroke-width:0.125776;stroke-linecap:square;stroke-linejoin:round;stroke-miterlimit:1.6"
         x="293.58713"
         y="114.67089"
         id="text11-3"
         transform="scale(0.98615294,1.0140415)"><tspan
           id="tspan11-8"
           style="font-style:normal;font-variant:normal;font-weight:bold;font-stretch:normal;font-family:Helvetica;-inkscape-font-specification:'Helvetica Bold';stroke-width:0.125776"
           x="293.58713"
           y="114.67089">2</tspan></text><text
         xml:space="preserve"
         style="font-size:3.35398px;line-height:1.5;font-family:'Noto Sans Tirhuta';-inkscape-font-specification:'Noto Sans Tirhuta';text-align:center;writing-mode:lr-tb;direction:ltr;text-anchor:middle;fill:#000000;fill-opacity:1;stroke:none;stroke-width:0.125776;stroke-linecap:square;stroke-linejoin:round;stroke-miterlimit:1.6"
         x="293.73047"
         y="110.23501"
         id="text11-4"
         transform="scale(0.98615294,1.0140415)"><tspan
           id="tspan11-6"
           style="font-style:normal;font-variant:normal;font-weight:bold;font-stretch:normal;font-family:Helvetica;-inkscape-font-specification:'Helvetica Bold';stroke-width:0.125776"
           x="293.73047"
           y="110.23501">3</tspan></text><text
         xml:space="preserve"
         style="font-size:3.35398px;line-height:1.5;font-family:'Noto Sans Tirhuta';-inkscape-font-specification:'Noto Sans Tirhuta';text-align:center;writing-mode:lr-tb;direction:ltr;text-anchor:middle;fill:#000000;fill-opacity:1;stroke:none;stroke-width:0.125776;stroke-linecap:square;stroke-linejoin:round;stroke-miterlimit:1.6"
         x="289.86847"
         y="114.65411"
         id="text11-4-9"
         transform="scale(0.98615294,1.0140415)"><tspan
           id="tspan11-6-4"
           style="font-style:normal;font-variant:normal;font-weight:bold;font-stretch:normal;font-family:Helvetica;-inkscape-font-specification:'Helvetica Bold';stroke-width:0.125776"
           x="289.86847"
           y="114.65411">3</tspan></text><text
         xml:space="preserve"
         style="font-style:normal;font-variant:normal;font-weight:normal;font-stretch:normal;font-size:3.26677px;line-height:1.5;font-family:Helvetica;-inkscape-font-specification:Helvetica;text-align:center;writing-mode:lr-tb;direction:ltr;text-anchor:middle;fill:#000000;fill-opacity:1;stroke:none;stroke-width:0.122505;stroke-linecap:square;stroke-linejoin:round;stroke-miterlimit:1.6"
         x="3.2845137"
         y="294.79099"
         id="text11-4-9-8"
         transform="matrix(0.36790941,-0.91537036,0.94023522,0.37872514,0,0)"><tspan
           id="tspan11-6-4-8"
           style="font-style:normal;font-variant:normal;font-weight:bold;font-stretch:normal;font-family:Helvetica;-inkscape-font-specification:'Helvetica Bold';fill:#ffffff;fill-opacity:1;stroke-width:0.122505"
           x="3.2845137"
           y="294.79099">D</tspan></text><text
         xml:space="preserve"
         style="font-style:normal;font-variant:normal;font-weight:normal;font-stretch:normal;font-size:4.88152px;line-height:8.4;font-family:Helvetica;-inkscape-font-specification:Helvetica;text-align:center;letter-spacing:0.441854px;writing-mode:lr-tb;direction:ltr;text-anchor:middle;fill:#000000;fill-opacity:1;stroke:none;stroke-width:0.183058;stroke-linecap:square;stroke-linejoin:round;stroke-miterlimit:1.6"
         x="283.51743"
         y="145.10002"
         id="text11-4-9-8-7"
         transform="matrix(1.0128745,-0.00126073,0.00108845,0.9872878,0,0)"><tspan
           id="tspan11-6-4-8-87"
           style="font-style:normal;font-variant:normal;font-weight:normal;font-stretch:normal;line-height:8.4;font-family:Helvetica;-inkscape-font-specification:Helvetica;letter-spacing:0.441854px;writing-mode:lr-tb;fill:#000000;fill-opacity:1;stroke-width:0.183058"
           x="283.73834"
           y="145.10002">PHYSICS OF PARASITISM</tspan></text><text
         xml:space="preserve"
         style="font-style:normal;font-variant:normal;font-weight:normal;font-stretch:normal;font-size:3.26677px;line-height:1.5;font-family:Helvetica;-inkscape-font-specification:Helvetica;text-align:center;writing-mode:lr-tb;direction:ltr;text-anchor:middle;fill:#000000;fill-opacity:1;stroke:none;stroke-width:0.122505;stroke-linecap:square;stroke-linejoin:round;stroke-miterlimit:1.6"
         x="111.25713"
         y="275.26004"
         id="text11-4-9-8-3"
         transform="matrix(0.66148543,-0.73191342,0.75151096,0.68022517,0,0)"><tspan
           id="tspan11-6-4-8-5"
           style="font-style:normal;font-variant:normal;font-weight:bold;font-stretch:normal;font-family:Helvetica;-inkscape-font-specification:'Helvetica Bold';fill:#ffffff;fill-opacity:1;stroke-width:0.122505"
           x="111.25713"
           y="275.26004">F</tspan></text><text
         xml:space="preserve"
         style="font-style:normal;font-variant:normal;font-weight:normal;font-stretch:normal;font-size:3.26677px;line-height:1.5;font-family:Helvetica;-inkscape-font-specification:Helvetica;text-align:center;writing-mode:lr-tb;direction:ltr;text-anchor:middle;fill:#000000;fill-opacity:1;stroke:none;stroke-width:0.122505;stroke-linecap:square;stroke-linejoin:round;stroke-miterlimit:1.6"
         x="207.58495"
         y="218.75949"
         id="text11-4-9-8-5"
         transform="matrix(0.87738813,-0.45105466,0.46276886,0.90184255,0,0)"><tspan
           id="tspan11-6-4-8-9"
           style="font-style:normal;font-variant:normal;font-weight:bold;font-stretch:normal;font-family:Helvetica;-inkscape-font-specification:'Helvetica Bold';fill:#ffffff;fill-opacity:1;stroke-width:0.122505"
           x="207.58495"
           y="218.75949">G</tspan></text><text
         xml:space="preserve"
         style="font-style:normal;font-variant:normal;font-weight:normal;font-stretch:normal;font-size:3.26677px;line-height:1.5;font-family:Helvetica;-inkscape-font-specification:Helvetica;text-align:center;writing-mode:lr-tb;direction:ltr;text-anchor:middle;fill:#000000;fill-opacity:1;stroke:none;stroke-width:0.122505;stroke-linecap:square;stroke-linejoin:round;stroke-miterlimit:1.6"
         x="308.08426"
         y="-59.619812"
         id="text11-4-9-8-1"
         transform="matrix(0.84754026,0.50491161,-0.51943897,0.87043562,0,0)"><tspan
           id="tspan11-6-4-8-7"
           style="font-style:normal;font-variant:normal;font-weight:bold;font-stretch:normal;font-family:Helvetica;-inkscape-font-specification:'Helvetica Bold';fill:#ffffff;fill-opacity:1;stroke-width:0.122505"
           x="308.08426"
           y="-59.619812">S</tspan></text><text
         xml:space="preserve"
         style="font-style:normal;font-variant:normal;font-weight:normal;font-stretch:normal;font-size:3.26677px;line-height:1.5;font-family:Helvetica;-inkscape-font-specification:Helvetica;text-align:center;writing-mode:lr-tb;direction:ltr;text-anchor:middle;fill:#000000;fill-opacity:1;stroke:none;stroke-width:0.122505;stroke-linecap:square;stroke-linejoin:round;stroke-miterlimit:1.6"
         x="285.1644"
         y="-136.62386"
         id="text11-4-9-8-18"
         transform="matrix(0.68581975,0.70916254,-0.72917655,0.70411403,0,0)"><tspan
           id="tspan11-6-4-8-8"
           style="font-style:normal;font-variant:normal;font-weight:bold;font-stretch:normal;font-family:Helvetica;-inkscape-font-specification:'Helvetica Bold';fill:#ffffff;fill-opacity:1;stroke-width:0.122505"
           x="285.1644"
           y="-136.62386">P</tspan></text><text
         xml:space="preserve"
         style="font-style:normal;font-variant:normal;font-weight:normal;font-stretch:normal;font-size:3.26677px;line-height:1.5;font-family:Helvetica;-inkscape-font-specification:Helvetica;text-align:center;writing-mode:lr-tb;direction:ltr;text-anchor:middle;fill:#000000;fill-opacity:1;stroke:none;stroke-width:0.122505;stroke-linecap:square;stroke-linejoin:round;stroke-miterlimit:1.6"
         x="228.81781"
         y="-219.19318"
         id="text11-4-9-8-2"
         transform="matrix(0.42106366,0.89216906,-0.91700639,0.43194245,0,0)"><tspan
           id="tspan11-6-4-8-6"
           style="font-style:normal;font-variant:normal;font-weight:bold;font-stretch:normal;font-family:Helvetica;-inkscape-font-specification:'Helvetica Bold';fill:#ffffff;fill-opacity:1;stroke-width:0.122505"
           x="228.81781"
           y="-219.19318">P</tspan></text><rect
         style="fill:#000000;fill-opacity:1;stroke:none;stroke-width:5.29167;stroke-linecap:square;stroke-linejoin:round;stroke-miterlimit:1.6"
         id="rect12"
         width="12.841762"
         height="0.41774404"
         x="247.04448"
         y="83.059731" /><rect
         style="fill:#000000;fill-opacity:1;stroke:none;stroke-width:3.16452;stroke-linecap:square;stroke-linejoin:round;stroke-miterlimit:1.6"
         id="rect12-1"
         width="4.592545"
         height="0.41774404"
         x="247.0462"
         y="140.6859" /><rect
         style="fill:#000000;fill-opacity:1;stroke:none;stroke-width:11.2503;stroke-linecap:square;stroke-linejoin:round;stroke-miterlimit:1.6"
         id="rect12-1-0"
         width="58.04533"
         height="0.41774404"
         x="83.059898"
         y="-247.4637"
         transform="rotate(90)" /><rect
         style="fill:#000000;fill-opacity:1;stroke:none;stroke-width:5.29167;stroke-linecap:square;stroke-linejoin:round;stroke-miterlimit:1.6"
         id="rect12-6"
         width="12.841762"
         height="0.41774404"
         x="-328.31842"
         y="83.014626"
         transform="scale(-1,1)" /><rect
         style="fill:#000000;fill-opacity:1;stroke:none;stroke-width:3.16452;stroke-linecap:square;stroke-linejoin:round;stroke-miterlimit:1.6"
         id="rect12-1-2"
         width="4.592545"
         height="0.41774404"
         x="-328.31668"
         y="140.64079"
         transform="scale(-1,1)" /><rect
         style="fill:#000000;fill-opacity:1;stroke:none;stroke-width:11.2503;stroke-linecap:square;stroke-linejoin:round;stroke-miterlimit:1.6"
         id="rect12-1-0-8"
         width="58.04533"
         height="0.41774404"
         x="83.014793"
         y="327.8992"
         transform="matrix(0,1,1,0,0,0)" /></g></g></svg>
