<?xml version="1.0" encoding="UTF-8" standalone="no"?>
<!-- Created with Inkscape (http://www.inkscape.org/) -->

<svg
   width="143.1226mm"
   height="142.33162mm"
   viewBox="0 0 143.12261 142.33162"
   version="1.1"
   id="svg1"
   xml:space="preserve"
   inkscape:version="1.4 (e7c3feb1, 2024-10-09)"
   sodipodi:docname="tbrucei_icon_main.svg"
   xmlns:inkscape="http://www.inkscape.org/namespaces/inkscape"
   xmlns:sodipodi="http://sodipodi.sourceforge.net/DTD/sodipodi-0.dtd"
   xmlns="http://www.w3.org/2000/svg"
   xmlns:svg="http://www.w3.org/2000/svg"><sodipodi:namedview
     id="namedview1"
     pagecolor="#ffffff"
     bordercolor="#000000"
     borderopacity="0.25"
     inkscape:showpageshadow="2"
     inkscape:pageopacity="0.0"
     inkscape:pagecheckerboard="0"
     inkscape:deskcolor="#d1d1d1"
     inkscape:document-units="mm"
     inkscape:zoom="0.83061914"
     inkscape:cx="768.10173"
     inkscape:cy="235.3666"
     inkscape:window-width="1920"
     inkscape:window-height="1022"
     inkscape:window-x="0"
     inkscape:window-y="30"
     inkscape:window-maximized="1"
     inkscape:current-layer="layer2" /><defs
     id="defs1" /><g
     inkscape:groupmode="layer"
     id="layer2"
     inkscape:label="Layer 2"
     transform="translate(-1061.3053,-279.99842)"><g
       id="g4-5-9-8"
       transform="rotate(-94.244741,1167.9038,135.29946)"
       inkscape:export-filename="tbrucei_icon_main.svg"
       inkscape:export-xdpi="96"
       inkscape:export-ydpi="96"><g
         id="g4-4-1-7-2-0"
         transform="rotate(-39.410704,667.52012,-852.00768)"><path
           id="path1-9-0-2-4-2"
           style="fill:#ff0000;fill-opacity:1;stroke-width:5.29167;stroke-linecap:square;stroke-linejoin:round;stroke-miterlimit:1.6"
           d="m 344.98825,56.037323 c -2.11657,-3.69849 -4.29239,-7.919255 -3.13883,-12.599664 0.68944,-2.797329 1.85794,-4.818474 3.10523,-6.339665 0.40901,-0.940401 0.89992,-1.939464 1.43919,-3.125391 1.0382,-2.283108 1.61395,-7.734743 0.51051,-13.456527 -0.30216,-0.781103 -0.56887,-1.579643 -0.77147,-2.40297 -0.18154,-0.737734 -0.39625,-1.443091 -0.54017,-2.161232 -1.74106,-4.675741 -4.81346,-9.0303242 -10.07314,-11.3852277 -0.62471,-0.2531507 -1.23756,-0.496928 -1.83916,-0.7127348 -2.45897,0.2735375 -5.19707,0.7006388 -7.99486,0.5406523 -3.4314,-0.1962178 -5.97556,-1.3387451 -7.86558,-2.0765161 -1.84579,0.3448661 -3.6553,0.8379317 -5.53309,1.5003239 -0.10173,0.593545 -0.16891,1.3066229 -0.18345,2.111499 -0.0446,2.469527 0.40514,5.5267314 -0.81442,8.3648644 -2.00359,4.662726 -6.45193,6.874059 -6.45193,6.874059 -0.53672,-0.434012 -0.53109,-0.923646 -0.62265,-1.359301 0,0 3.25685,-3.869794 4.72574,-7.288174 0.62092,-2.210496 0.49615,-6.5685175 0.32927,-7.7259084 -6.45815,3.8039778 -12.67164,11.9622854 -16.1529,14.2928314 -8.44087,5.650773 -16.64349,1.43389 -16.66359,4.622973 -0.0201,3.189083 14.1189,9.59877 24.09879,5.135604 9.97989,-4.463166 16.94448,-17.976848 28.12697,-9.970451 11.18249,8.006397 0.61922,13.39966 3.8008,25.484233 2.7743,10.537578 14.75425,18.797068 18.85995,20.332461 -2.36187,-3.201756 -4.46976,-5.368103 -6.35121,-8.655739 z"
           sodipodi:nodetypes="scscscccsccssccsscssssccs" /><path
           style="display:inline;fill:none;fill-opacity:1;stroke:#ff0000;stroke-width:2.492;stroke-linecap:round;stroke-linejoin:round;stroke-miterlimit:1.6;stroke-dasharray:none;stroke-opacity:1"
           d="m 304.23885,19.995487 c 0,0 3.38871,-2.487751 5.12495,-6.528304 1.73624,-4.0405525 -1.09004,-11.6558554 3.20753,-13.51601968 4.29757,-1.86016422 7.10482,1.99946178 13.23387,2.34993978 6.12905,0.350478 13.22594,-2.62846417 17.21167,1.2720879 3.98573,3.9005521 3.98262,9.294579 5.15031,14.039757 1.16769,4.745178 5.41526,9.907007 4.14466,14.225458 -1.2706,4.318451 -6.53416,4.422467 -8.42671,12.101217 -1.89255,7.67875 7.46304,16.194725 10.62372,22.389444 3.16068,6.194718 3.33172,8.494736 0.0303,14.399787 -3.30146,5.905051 4.06436,8.343087 4.06436,8.343087"
           id="path2-1-1-9-5-4"
           sodipodi:nodetypes="czzzzzzzzzc" /></g><g
         id="g4-4-1-3-7-8-8"
         transform="rotate(-129.41071,632.31065,-86.874388)"><path
           id="path1-9-0-0-5-6-3"
           style="fill:#ff0000;fill-opacity:1;stroke-width:5.29167;stroke-linecap:square;stroke-linejoin:round;stroke-miterlimit:1.6"
           d="m 344.98825,56.037323 c -2.11657,-3.69849 -4.29239,-7.919255 -3.13883,-12.599664 0.68944,-2.797329 1.85794,-4.818474 3.10523,-6.339665 0.40901,-0.940401 0.89992,-1.939464 1.43919,-3.125391 1.0382,-2.283108 1.61395,-7.734743 0.51051,-13.456527 -0.30216,-0.781103 -0.56887,-1.579643 -0.77147,-2.40297 -0.18154,-0.737734 -0.39625,-1.443091 -0.54017,-2.161232 -1.74106,-4.675741 -4.81346,-9.0303242 -10.07314,-11.3852277 -0.62471,-0.2531507 -1.23756,-0.496928 -1.83916,-0.7127348 -2.45897,0.2735375 -5.19707,0.7006388 -7.99486,0.5406523 -3.4314,-0.1962178 -5.97556,-1.3387451 -7.86558,-2.0765161 -1.84579,0.3448661 -3.6553,0.8379317 -5.53309,1.5003239 -0.10173,0.593545 -0.16891,1.3066229 -0.18345,2.111499 -0.0446,2.469527 0.40514,5.5267314 -0.81442,8.3648644 -2.00359,4.662726 -6.45193,6.874059 -6.45193,6.874059 -0.53672,-0.434012 -0.53109,-0.923646 -0.62265,-1.359301 0,0 3.25685,-3.869794 4.72574,-7.288174 0.62092,-2.210496 0.49615,-6.5685175 0.32927,-7.7259084 -6.45815,3.8039778 -12.67164,11.9622854 -16.1529,14.2928314 -8.44087,5.650773 -16.64349,1.43389 -16.66359,4.622973 -0.0201,3.189083 14.1189,9.59877 24.09879,5.135604 9.97989,-4.463166 16.94448,-17.976848 28.12697,-9.970451 11.18249,8.006397 0.61922,13.39966 3.8008,25.484233 2.7743,10.537578 14.75425,18.797068 18.85995,20.332461 -2.36187,-3.201756 -4.46976,-5.368103 -6.35121,-8.655739 z"
           sodipodi:nodetypes="scscscccsccssccsscssssccs" /><path
           style="display:inline;fill:none;fill-opacity:1;stroke:#ff0000;stroke-width:2.492;stroke-linecap:round;stroke-linejoin:round;stroke-miterlimit:1.6;stroke-dasharray:none;stroke-opacity:1"
           d="m 304.23885,19.995487 c 0,0 3.38871,-2.487751 5.12495,-6.528304 1.73624,-4.0405525 -1.09004,-11.6558554 3.20753,-13.51601968 4.29757,-1.86016422 7.10482,1.99946178 13.23387,2.34993978 6.12905,0.350478 13.22594,-2.62846417 17.21167,1.2720879 3.98573,3.9005521 3.98262,9.294579 5.15031,14.039757 1.16769,4.745178 5.41526,9.907007 4.14466,14.225458 -1.2706,4.318451 -6.53416,4.422467 -8.42671,12.101217 -1.89255,7.67875 7.46304,16.194725 10.62372,22.389444 3.16068,6.194718 3.33172,8.494736 0.0303,14.399787 -3.30146,5.905051 4.06436,8.343087 4.06436,8.343087"
           id="path2-1-1-8-65-2-9"
           sodipodi:nodetypes="czzzzzzzzzc" /></g><g
         id="g4-4-1-3-6-3-5-0"
         transform="rotate(140.58929,619.67401,187.82085)"><path
           id="path1-9-0-0-4-04-1-5"
           style="fill:#ff0000;fill-opacity:1;stroke-width:5.29167;stroke-linecap:square;stroke-linejoin:round;stroke-miterlimit:1.6"
           d="m 344.98825,56.037323 c -2.11657,-3.69849 -4.29239,-7.919255 -3.13883,-12.599664 0.68944,-2.797329 1.85794,-4.818474 3.10523,-6.339665 0.40901,-0.940401 0.89992,-1.939464 1.43919,-3.125391 1.0382,-2.283108 1.61395,-7.734743 0.51051,-13.456527 -0.30216,-0.781103 -0.56887,-1.579643 -0.77147,-2.40297 -0.18154,-0.737734 -0.39625,-1.443091 -0.54017,-2.161232 -1.74106,-4.675741 -4.81346,-9.0303242 -10.07314,-11.3852277 -0.62471,-0.2531507 -1.23756,-0.496928 -1.83916,-0.7127348 -2.45897,0.2735375 -5.19707,0.7006388 -7.99486,0.5406523 -3.4314,-0.1962178 -5.97556,-1.3387451 -7.86558,-2.0765161 -1.84579,0.3448661 -3.6553,0.8379317 -5.53309,1.5003239 -0.10173,0.593545 -0.16891,1.3066229 -0.18345,2.111499 -0.0446,2.469527 0.40514,5.5267314 -0.81442,8.3648644 -2.00359,4.662726 -6.45193,6.874059 -6.45193,6.874059 -0.53672,-0.434012 -0.53109,-0.923646 -0.62265,-1.359301 0,0 3.25685,-3.869794 4.72574,-7.288174 0.62092,-2.210496 0.49615,-6.5685175 0.32927,-7.7259084 -6.45815,3.8039778 -12.67164,11.9622854 -16.1529,14.2928314 -8.44087,5.650773 -16.64349,1.43389 -16.66359,4.622973 -0.0201,3.189083 14.1189,9.59877 24.09879,5.135604 9.97989,-4.463166 16.94448,-17.976848 28.12697,-9.970451 11.18249,8.006397 0.61922,13.39966 3.8008,25.484233 2.7743,10.537578 14.75425,18.797068 18.85995,20.332461 -2.36187,-3.201756 -4.46976,-5.368103 -6.35121,-8.655739 z"
           sodipodi:nodetypes="scscscccsccssccsscssssccs" /><path
           style="display:inline;fill:none;fill-opacity:1;stroke:#ff0000;stroke-width:2.492;stroke-linecap:round;stroke-linejoin:round;stroke-miterlimit:1.6;stroke-dasharray:none;stroke-opacity:1"
           d="m 304.23885,19.995487 c 0,0 3.38871,-2.487751 5.12495,-6.528304 1.73624,-4.0405525 -1.09004,-11.6558554 3.20753,-13.51601968 4.29757,-1.86016422 7.10482,1.99946178 13.23387,2.34993978 6.12905,0.350478 13.22594,-2.62846417 17.21167,1.2720879 3.98573,3.9005521 3.98262,9.294579 5.15031,14.039757 1.16769,4.745178 5.41526,9.907007 4.14466,14.225458 -1.2706,4.318451 -6.53416,4.422467 -8.42671,12.101217 -1.89255,7.67875 7.46304,16.194725 10.62372,22.389444 3.16068,6.194718 3.33172,8.494736 0.0303,14.399787 -3.30146,5.905051 4.06436,8.343087 4.06436,8.343087"
           id="path2-1-1-8-6-8-3-2"
           sodipodi:nodetypes="czzzzzzzzzc" /></g><g
         id="g4-4-1-3-6-4-5-9-2"
         transform="rotate(50.589292,592.6926,767.1811)"><path
           id="path1-9-0-0-4-0-5-7-7"
           style="fill:#ff0000;fill-opacity:1;stroke-width:5.29167;stroke-linecap:square;stroke-linejoin:round;stroke-miterlimit:1.6"
           d="m 344.98825,56.037323 c -2.11657,-3.69849 -4.29239,-7.919255 -3.13883,-12.599664 0.68944,-2.797329 1.85794,-4.818474 3.10523,-6.339665 0.40901,-0.940401 0.89992,-1.939464 1.43919,-3.125391 1.0382,-2.283108 1.61395,-7.734743 0.51051,-13.456527 -0.30216,-0.781103 -0.56887,-1.579643 -0.77147,-2.40297 -0.18154,-0.737734 -0.39625,-1.443091 -0.54017,-2.161232 -1.74106,-4.675741 -4.81346,-9.0303242 -10.07314,-11.3852277 -0.62471,-0.2531507 -1.23756,-0.496928 -1.83916,-0.7127348 -2.45897,0.2735375 -5.19707,0.7006388 -7.99486,0.5406523 -3.4314,-0.1962178 -5.97556,-1.3387451 -7.86558,-2.0765161 -1.84579,0.3448661 -3.6553,0.8379317 -5.53309,1.5003239 -0.10173,0.593545 -0.16891,1.3066229 -0.18345,2.111499 -0.0446,2.469527 0.40514,5.5267314 -0.81442,8.3648644 -2.00359,4.662726 -6.45193,6.874059 -6.45193,6.874059 -0.53672,-0.434012 -0.53109,-0.923646 -0.62265,-1.359301 0,0 3.25685,-3.869794 4.72574,-7.288174 0.62092,-2.210496 0.49615,-6.5685175 0.32927,-7.7259084 -6.45815,3.8039778 -12.67164,11.9622854 -16.1529,14.2928314 -8.44087,5.650773 -16.64349,1.43389 -16.66359,4.622973 -0.0201,3.189083 14.1189,9.59877 24.09879,5.135604 9.97989,-4.463166 16.94448,-17.976848 28.12697,-9.970451 11.18249,8.006397 0.61922,13.39966 3.8008,25.484233 2.7743,10.537578 14.75425,18.797068 18.85995,20.332461 -2.36187,-3.201756 -4.46976,-5.368103 -6.35121,-8.655739 z"
           sodipodi:nodetypes="scscscccsccssccsscssssccs" /><path
           style="display:inline;fill:none;fill-opacity:1;stroke:#ff0000;stroke-width:2.492;stroke-linecap:round;stroke-linejoin:round;stroke-miterlimit:1.6;stroke-dasharray:none;stroke-opacity:1"
           d="m 304.23885,19.995487 c 0,0 3.38871,-2.487751 5.12495,-6.528304 1.73624,-4.0405525 -1.09004,-11.6558554 3.20753,-13.51601968 4.29757,-1.86016422 7.10482,1.99946178 13.23387,2.34993978 6.12905,0.350478 13.22594,-2.62846417 17.21167,1.2720879 3.98573,3.9005521 3.98262,9.294579 5.15031,14.039757 1.16769,4.745178 5.41526,9.907007 4.14466,14.225458 -1.2706,4.318451 -6.53416,4.422467 -8.42671,12.101217 -1.89255,7.67875 7.46304,16.194725 10.62372,22.389444 3.16068,6.194718 3.33172,8.494736 0.0303,14.399787 -3.30146,5.905051 4.06436,8.343087 4.06436,8.343087"
           id="path2-1-1-8-6-0-5-3-3"
           sodipodi:nodetypes="czzzzzzzzzc" /></g></g></g></svg>
